<svg width="15" height="15" viewBox="0 0 15 15" fill="none" xmlns="http://www.w3.org/2000/svg">
<mask id="mask0" style="mask-type:alpha" maskUnits="userSpaceOnUse" x="0" y="0" width="15" height="15">
<path fill-rule="evenodd" clip-rule="evenodd" d="M0 0H14.9994V15H0V0Z" fill="white"/>
</mask>
<g mask="url(#mask0)">
<path fill-rule="evenodd" clip-rule="evenodd" d="M3.56509 13.0328C3.96986 13.0328 4.3516 13.1864 4.75567 13.349C7.23103 14.4935 10.1586 13.9729 12.0659 12.0663C14.5825 9.54834 14.5825 5.4525 12.0659 2.93596C10.8474 1.71747 9.22696 1.04681 7.50181 1.04681C5.77596 1.04681 4.1548 1.71817 2.937 2.93666C1.02901 4.84326 0.509791 7.77085 1.64384 10.2225C1.80714 10.6266 1.96486 11.0202 1.96486 11.4291C1.96486 11.8374 1.82459 12.2484 1.70107 12.6113C1.59918 12.91 1.44494 13.3608 1.54404 13.4599C1.64105 13.5604 2.09467 13.402 2.39406 13.2994C2.75346 13.1766 3.16102 13.0356 3.56509 13.0328ZM7.48432 15.0001C6.41797 15.0001 5.34464 14.7747 4.34039 14.3099C4.04449 14.1913 3.76744 14.0796 3.56854 14.0796C3.33964 14.081 3.03188 14.1871 2.73458 14.2897C2.12464 14.4991 1.36535 14.7601 0.80356 14.2004C0.243864 13.64 0.502078 12.8828 0.710045 12.2735C0.812632 11.9735 0.918012 11.6636 0.918012 11.4291C0.918012 11.2365 0.825194 10.9908 0.682827 10.637C-0.624294 7.81411 -0.0199333 4.41197 2.19722 2.19621C3.61251 0.780225 5.49608 0 7.50107 0C9.50607 0 11.3903 0.779527 12.8056 2.19552C15.7311 5.12101 15.7311 9.88052 12.8056 12.806C11.3715 14.2409 9.44047 15.0001 7.48432 15.0001Z" fill="#DBDBDB"/>
</g>
</svg>
