<svg width="122" height="28" viewBox="0 0 122 28" fill="none" xmlns="http://www.w3.org/2000/svg">
<g clip-path="url(#clip0)">
<path d="M11.2664 22.4054L8.7619 24.9259C8.36054 25.3298 7.71835 25.3298 7.33303 24.9259L4.82849 22.4054C4.42712 22.0015 4.42712 21.3552 4.82849 20.9675L7.33303 18.447C7.7344 18.0431 8.37659 18.0431 8.7619 18.447L11.2664 20.9675C11.6518 21.3552 11.6518 22.0015 11.2664 22.4054Z" fill="#76B243"/>
<path d="M6.75503 17.8654L4.25049 20.3859C3.84912 20.7898 3.20693 20.7898 2.82162 20.3859L0.301026 17.8654C-0.100342 17.4615 -0.100342 16.8152 0.301026 16.4274L2.80557 13.9069C3.20693 13.503 3.84912 13.503 4.23444 13.9069L6.75503 16.4274C7.1564 16.8152 7.1564 17.4615 6.75503 17.8654Z" fill="#76B243"/>
<path d="M15.7617 17.8654L13.2571 20.3859C12.8558 20.7898 12.2136 20.7898 11.8283 20.3859L9.32373 17.8654C8.92236 17.4615 8.92236 16.8152 9.32373 16.4274L11.8283 13.9069C12.2296 13.503 12.8718 13.503 13.2571 13.9069L15.7617 16.4274C16.163 16.8152 16.163 17.4615 15.7617 17.8654Z" fill="#76B243"/>
<path d="M20.2732 13.3254L17.7686 15.8458C17.3672 16.2498 16.7251 16.2498 16.3397 15.8458L13.8352 13.3254C13.4338 12.9214 13.4338 12.2752 13.8352 11.8874L16.3397 9.36691C16.7411 8.96298 17.3833 8.96298 17.7686 9.36691L20.2732 11.8874C20.6745 12.2913 20.6745 12.9376 20.2732 13.3254Z" fill="#76B243"/>
<path d="M11.2664 13.3254L8.76185 15.8458C8.36048 16.2498 7.71829 16.2498 7.33297 15.8458L4.81238 13.3254C4.41101 12.9214 4.41101 12.2752 4.81238 11.8874L7.31692 9.36691C7.71829 8.96298 8.36048 8.96298 8.74579 9.36691L11.2503 11.8874C11.6517 12.2913 11.6517 12.9376 11.2664 13.3254Z" fill="#91C959"/>
<path d="M6.75503 8.80144L4.25049 11.3219C3.84912 11.7258 3.20693 11.7258 2.82162 11.3219L0.301026 8.80144C-0.100342 8.39751 -0.100342 7.75123 0.301026 7.36347L2.80557 4.84298C3.20693 4.43906 3.84912 4.43906 4.23444 4.84298L6.75503 7.34731C7.1564 7.75123 7.1564 8.39751 6.75503 8.80144Z" fill="#91C959"/>
<path d="M15.7617 8.80144L13.2571 11.3219C12.8558 11.7258 12.2136 11.7258 11.8283 11.3219L9.32373 8.80144C8.92236 8.39751 8.92236 7.75123 9.32373 7.36347L11.8283 4.84298C12.2296 4.43906 12.8718 4.43906 13.2571 4.84298L15.7617 7.36347C16.163 7.75123 16.163 8.39751 15.7617 8.80144Z" fill="#91C959"/>
<path d="M20.2732 4.2614L17.7686 6.78188C17.3672 7.1858 16.7251 7.1858 16.3397 6.78188L13.8352 4.2614C13.4338 3.85747 13.4338 3.21119 13.8352 2.82343L16.3397 0.302943C16.7411 -0.100981 17.3833 -0.100981 17.7686 0.302943L20.2732 2.82343C20.6745 3.21119 20.6745 3.85747 20.2732 4.2614Z" fill="#91C959"/>
<path d="M43.2957 6.55578C41.8508 4.95624 39.7637 4.16455 37.0504 4.16455H33.2776H31.4152H31.3349C30.7891 4.16455 30.3556 4.60079 30.3556 5.15012V5.23091V21.6464V21.7272C30.3556 22.2765 30.7891 22.7127 31.3349 22.7127H31.4152H33.2776H37.0504C39.7637 22.7127 41.8508 21.921 43.2957 20.3215C44.7406 18.722 45.4631 16.4277 45.4631 13.4548C45.4631 10.4496 44.7406 8.15532 43.2957 6.55578ZM40.2293 17.7525C39.5068 18.7381 38.4472 19.239 37.0504 19.239H34.4496V7.62214H37.0504C38.4472 7.62214 39.5228 8.123 40.2293 9.10858C40.9517 10.0942 41.3049 11.5321 41.3049 13.4225C41.3049 15.3128 40.9517 16.7508 40.2293 17.7525Z" fill="#757575"/>
<path d="M49.1877 20.8547C48.096 19.6267 47.5502 17.8495 47.5502 15.539C47.5502 13.2286 48.096 11.4675 49.1877 10.2396C50.2795 9.02778 51.8689 8.41382 53.956 8.41382C56.0431 8.41382 57.6325 9.02778 58.7082 10.2396C59.7839 11.4513 60.3297 13.2286 60.3297 15.539C60.3297 17.8495 59.7839 19.6267 58.7082 20.8547C57.6325 22.0826 56.0431 22.6966 53.956 22.6966C51.8689 22.6966 50.2795 22.0826 49.1877 20.8547ZM55.7862 18.5765C56.1876 17.898 56.3803 16.8801 56.3803 15.539C56.3803 14.198 56.1876 13.1963 55.7862 12.5177C55.3849 11.8391 54.7748 11.516 53.956 11.516C53.1372 11.516 52.5111 11.8553 52.1097 12.5177C51.7083 13.1963 51.4996 14.198 51.4996 15.539C51.4996 18.2372 52.3184 19.5944 53.9399 19.5944C54.7748 19.5944 55.3849 19.2551 55.7862 18.5765Z" fill="#757575"/>
<path d="M73.88 12.5499C73.8318 11.2735 73.5108 10.3041 72.9328 9.67398C72.3066 8.97923 71.3273 8.62378 70.0108 8.62378C69.2241 8.62378 68.4696 8.81766 67.7792 9.20543C67.1852 9.52857 66.7035 9.91633 66.3022 10.3687V9.90018C66.3022 9.35084 65.8687 8.9146 65.3228 8.9146H63.3802C62.8344 8.9146 62.4009 9.35084 62.4009 9.90018V21.7109C62.4009 22.2602 62.8344 22.6965 63.3802 22.6965H65.3228C65.8687 22.6965 66.3022 22.2602 66.3022 21.7109V13.3901C66.5109 12.9862 66.7999 12.6307 67.1531 12.3237C67.5063 12.0167 67.9237 11.8552 68.4053 11.8552C68.9673 11.8552 69.3686 11.9844 69.6095 12.2591C69.8503 12.5338 69.9787 12.9377 69.9787 13.487V21.7109C69.9787 22.2602 70.4122 22.6965 70.958 22.6965H72.9007C73.4465 22.6965 73.88 22.2602 73.88 21.7109V12.6145C73.8961 12.5984 73.8961 12.5822 73.88 12.5499Z" fill="#757575"/>
<path d="M88.0724 15.2643C88.0724 13.2447 87.6068 11.6129 86.6917 10.3365C85.7765 9.06005 84.3316 8.42993 82.389 8.42993C80.3821 8.42993 78.8248 9.01158 77.685 10.1749C76.5451 11.3382 75.9832 13.1639 75.9832 15.6521C75.9832 17.8656 76.5451 19.5782 77.685 20.8385C78.8248 22.0987 80.5427 22.7127 82.8546 22.7127C83.4165 22.7127 84.0747 22.6481 84.8293 22.5026C85.5839 22.3572 86.2261 22.1472 86.7719 21.8564C87.3178 21.5655 87.5907 21.2101 87.5907 20.8062C87.5907 20.6284 87.5105 20.3861 87.366 20.0468C87.2215 19.7236 87.0288 19.4328 86.8201 19.1743C86.5953 18.9158 86.4027 18.7865 86.2261 18.7865C86.1137 18.7865 85.921 18.8512 85.6481 18.9966C85.2146 19.1743 84.7811 19.3197 84.3798 19.4328C83.9784 19.5459 83.5289 19.6105 83.0312 19.6105C82.1161 19.6105 81.4097 19.4005 80.8959 18.9804C80.3821 18.5603 80.0932 17.8333 79.9968 16.8315H85.2628H86.7238H87.093C87.6389 16.8315 88.0724 16.3953 88.0724 15.846V15.3774C88.0724 15.3451 88.0724 15.329 88.0724 15.2966C88.0724 15.2805 88.0724 15.2643 88.0724 15.2643ZM82.389 11.5159C83.0151 11.5159 83.4968 11.7583 83.8179 12.243C84.139 12.7277 84.2995 13.374 84.2995 14.1818H80.0289C80.3019 12.4207 81.0886 11.5159 82.389 11.5159Z" fill="#757575"/>
<path d="M122.012 12.5499C121.964 11.2735 121.643 10.3041 121.065 9.67398C120.439 8.97923 119.459 8.62378 118.143 8.62378C117.356 8.62378 116.602 8.81766 115.911 9.20543C115.317 9.52857 114.836 9.91633 114.434 10.3687V9.90018C114.434 9.35084 114.001 8.9146 113.455 8.9146H111.512C110.966 8.9146 110.533 9.35084 110.533 9.90018V21.7109C110.533 22.2602 110.966 22.6965 111.512 22.6965H113.455C114.001 22.6965 114.434 22.2602 114.434 21.7109V13.3901C114.643 12.9862 114.932 12.6307 115.285 12.3237C115.638 12.0167 116.056 11.8552 116.537 11.8552C117.099 11.8552 117.501 11.9844 117.742 12.2591C117.982 12.5338 118.111 12.9377 118.111 13.487V21.7109C118.111 22.2602 118.544 22.6965 119.09 22.6965H121.033C121.579 22.6965 122.012 22.2602 122.012 21.7109V12.6145C122.012 12.5984 122.012 12.5822 122.012 12.5499Z" fill="#757575"/>
<path d="M107.194 22.6966H105.813C105.122 22.6966 104.561 22.1311 104.561 21.4364V10.0134C104.561 9.31867 105.122 8.75317 105.813 8.75317H107.194C107.884 8.75317 108.446 9.31867 108.446 10.0134V21.4364C108.446 22.1311 107.884 22.6966 107.194 22.6966Z" fill="#757575"/>
<path d="M107.194 7.44437H105.813C105.122 7.44437 104.561 6.87888 104.561 6.18413V4.98851C104.561 4.29376 105.122 3.72827 105.813 3.72827H107.194C107.884 3.72827 108.446 4.29376 108.446 4.98851V6.18413C108.446 6.87888 107.884 7.44437 107.194 7.44437Z" fill="#757575"/>
<path d="M101.799 11.5966C101.366 10.5141 100.788 9.67397 100.033 9.10847C99.2786 8.54298 98.4277 8.26831 97.4644 8.26831C96.6616 8.26831 95.9552 8.46219 95.313 8.8338C94.7993 9.14079 94.3979 9.5124 94.0929 9.94863V9.81938C94.0929 9.12463 93.531 8.55914 92.8406 8.55914H91.4599C90.7696 8.55914 90.2076 9.12463 90.2076 9.81938V26.7195C90.2076 27.4143 90.7696 27.9798 91.4599 27.9798H92.8406C93.531 27.9798 94.0929 27.4143 94.0929 26.7195V21.8725L94.1089 21.8886C94.8796 22.438 95.7786 22.7126 96.8222 22.7126C98.6043 22.7126 99.985 22.0663 100.964 20.7738C101.944 19.4812 102.441 17.7201 102.441 15.5066C102.441 13.9879 102.233 12.6792 101.799 11.5966ZM95.9713 19.5782C95.3291 19.5782 94.703 19.4166 94.1089 19.0612V13.0831C94.719 12.0329 95.4415 11.4997 96.2924 11.4997C97.7373 11.4997 98.4437 12.8246 98.4437 15.4905C98.4437 18.221 97.6249 19.5782 95.9713 19.5782Z" fill="#757575"/>
</g>
<defs>
<clipPath id="clip0">
<rect width="122" height="28" fill="white"/>
</clipPath>
</defs>
</svg>
