<svg width="122" height="28" viewBox="0 0 122 28" fill="none" xmlns="http://www.w3.org/2000/svg">
<g clip-path="url(#clip0)">
<path d="M11.2664 22.4054L8.7619 24.9259C8.36054 25.3298 7.71835 25.3298 7.33303 24.9259L4.82849 22.4054C4.42712 22.0015 4.42712 21.3552 4.82849 20.9675L7.33303 18.447C7.7344 18.0431 8.37659 18.0431 8.7619 18.447L11.2664 20.9675C11.6518 21.3552 11.6518 22.0015 11.2664 22.4054Z" fill="#76B243"/>
<path d="M6.75503 17.8654L4.25049 20.3859C3.84912 20.7898 3.20693 20.7898 2.82162 20.3859L0.301026 17.8654C-0.100342 17.4615 -0.100342 16.8152 0.301026 16.4274L2.80557 13.9069C3.20693 13.503 3.84912 13.503 4.23444 13.9069L6.75503 16.4274C7.1564 16.8152 7.1564 17.4615 6.75503 17.8654Z" fill="#76B243"/>
<path d="M15.7617 17.8654L13.2572 20.3859C12.8558 20.7898 12.2136 20.7898 11.8283 20.3859L9.32379 17.8654C8.92242 17.4615 8.92242 16.8152 9.32379 16.4274L11.8283 13.9069C12.2297 13.503 12.8719 13.503 13.2572 13.9069L15.7617 16.4274C16.1631 16.8152 16.1631 17.4615 15.7617 17.8654Z" fill="#76B243"/>
<path d="M20.2732 13.3254L17.7686 15.8458C17.3672 16.2498 16.7251 16.2498 16.3397 15.8458L13.8352 13.3254C13.4338 12.9214 13.4338 12.2752 13.8352 11.8874L16.3397 9.36691C16.7411 8.96298 17.3833 8.96298 17.7686 9.36691L20.2732 11.8874C20.6745 12.2913 20.6745 12.9376 20.2732 13.3254Z" fill="#76B243"/>
<path d="M11.2664 13.3254L8.76191 15.8458C8.36054 16.2498 7.71835 16.2498 7.33303 15.8458L4.81244 13.3254C4.41107 12.9214 4.41107 12.2752 4.81244 11.8874L7.31698 9.36691C7.71835 8.96298 8.36054 8.96298 8.74585 9.36691L11.2504 11.8874C11.6518 12.2913 11.6518 12.9376 11.2664 13.3254Z" fill="#91C959"/>
<path d="M6.75503 8.80144L4.25049 11.3219C3.84912 11.7258 3.20693 11.7258 2.82162 11.3219L0.301026 8.80144C-0.100342 8.39751 -0.100342 7.75123 0.301026 7.36347L2.80557 4.84298C3.20693 4.43906 3.84912 4.43906 4.23444 4.84298L6.75503 7.34731C7.1564 7.75123 7.1564 8.39751 6.75503 8.80144Z" fill="#91C959"/>
<path d="M15.7617 8.80144L13.2572 11.3219C12.8558 11.7258 12.2136 11.7258 11.8283 11.3219L9.32379 8.80144C8.92242 8.39751 8.92242 7.75123 9.32379 7.36347L11.8283 4.84298C12.2297 4.43906 12.8719 4.43906 13.2572 4.84298L15.7617 7.36347C16.1631 7.75123 16.1631 8.39751 15.7617 8.80144Z" fill="#91C959"/>
<path d="M20.2732 4.2614L17.7686 6.78188C17.3672 7.1858 16.7251 7.1858 16.3397 6.78188L13.8352 4.2614C13.4338 3.85747 13.4338 3.21119 13.8352 2.82343L16.3397 0.302943C16.7411 -0.100981 17.3833 -0.100981 17.7686 0.302943L20.2732 2.82343C20.6745 3.21119 20.6745 3.85747 20.2732 4.2614Z" fill="#91C959"/>
<path d="M43.2957 6.55578C41.8507 4.95624 39.7636 4.16455 37.0504 4.16455H33.2775H31.4151H31.3349C30.789 4.16455 30.3555 4.60079 30.3555 5.15012V5.23091V21.6464V21.7272C30.3555 22.2765 30.789 22.7127 31.3349 22.7127H31.4151H33.2775H37.0504C39.7636 22.7127 41.8507 21.921 43.2957 20.3215C44.7406 18.722 45.463 16.4277 45.463 13.4548C45.463 10.4496 44.7406 8.15532 43.2957 6.55578ZM40.2292 17.7525C39.5067 18.7381 38.4471 19.239 37.0504 19.239H34.4495V7.62214H37.0504C38.4471 7.62214 39.5228 8.123 40.2292 9.10858C40.9517 10.0942 41.3049 11.5321 41.3049 13.4225C41.3049 15.3128 40.9517 16.7508 40.2292 17.7525Z" fill="white"/>
<path d="M49.1877 20.8544C48.096 19.6265 47.5502 17.8492 47.5502 15.5388C47.5502 13.2283 48.096 11.4672 49.1877 10.2393C50.2795 9.02754 51.8689 8.41357 53.956 8.41357C56.0431 8.41357 57.6325 9.02754 58.7082 10.2393C59.7839 11.4511 60.3297 13.2283 60.3297 15.5388C60.3297 17.8492 59.7839 19.6265 58.7082 20.8544C57.6325 22.0824 56.0431 22.6963 53.956 22.6963C51.8689 22.6963 50.2795 22.0824 49.1877 20.8544ZM55.7862 18.5763C56.1876 17.8977 56.3803 16.8798 56.3803 15.5388C56.3803 14.1978 56.1876 13.196 55.7862 12.5174C55.3849 11.8389 54.7748 11.5157 53.956 11.5157C53.1372 11.5157 52.5111 11.855 52.1097 12.5174C51.7083 13.196 51.4996 14.1978 51.4996 15.5388C51.4996 18.237 52.3184 19.5942 53.9399 19.5942C54.7748 19.5942 55.3849 19.2549 55.7862 18.5763Z" fill="white"/>
<path d="M73.88 12.5502C73.8318 11.2738 73.5108 10.3043 72.9328 9.67423C72.3066 8.97948 71.3273 8.62402 70.0108 8.62402C69.2241 8.62402 68.4696 8.81791 67.7792 9.20567C67.1852 9.52881 66.7035 9.91658 66.3022 10.369V9.90042C66.3022 9.35109 65.8687 8.91485 65.3228 8.91485H63.3802C62.8344 8.91485 62.4009 9.35109 62.4009 9.90042V21.7112C62.4009 22.2605 62.8344 22.6967 63.3802 22.6967H65.3228C65.8687 22.6967 66.3022 22.2605 66.3022 21.7112V13.3903C66.5109 12.9864 66.7999 12.6309 67.1531 12.324C67.5063 12.017 67.9237 11.8554 68.4053 11.8554C68.9673 11.8554 69.3686 11.9847 69.6095 12.2593C69.8503 12.534 69.9787 12.9379 69.9787 13.4873V21.7112C69.9787 22.2605 70.4122 22.6967 70.958 22.6967H72.9007C73.4465 22.6967 73.88 22.2605 73.88 21.7112V12.6148C73.8961 12.5986 73.8961 12.5825 73.88 12.5502Z" fill="white"/>
<path d="M88.0724 15.2641C88.0724 13.2445 87.6068 11.6126 86.6917 10.3362C85.7765 9.05981 84.3316 8.42969 82.389 8.42969C80.3821 8.42969 78.8248 9.01134 77.685 10.1746C76.5451 11.3379 75.9832 13.1637 75.9832 15.6518C75.9832 17.8653 76.5451 19.578 77.685 20.8382C78.8248 22.0985 80.5427 22.7124 82.8546 22.7124C83.4165 22.7124 84.0747 22.6478 84.8293 22.5024C85.5839 22.357 86.2261 22.1469 86.7719 21.8561C87.3178 21.5653 87.5907 21.2098 87.5907 20.8059C87.5907 20.6282 87.5105 20.3858 87.366 20.0465C87.2215 19.7234 87.0288 19.4326 86.8201 19.1741C86.5953 18.9156 86.4027 18.7863 86.2261 18.7863C86.1137 18.7863 85.921 18.8509 85.6481 18.9963C85.2146 19.1741 84.7811 19.3195 84.3798 19.4326C83.9784 19.5457 83.5289 19.6103 83.0312 19.6103C82.1161 19.6103 81.4097 19.4003 80.8959 18.9802C80.3821 18.5601 80.0932 17.833 79.9968 16.8313H85.2628H86.7238H87.093C87.6389 16.8313 88.0724 16.3951 88.0724 15.8457V15.3772C88.0724 15.3449 88.0724 15.3287 88.0724 15.2964C88.0724 15.2802 88.0724 15.2641 88.0724 15.2641ZM82.389 11.5157C83.0151 11.5157 83.4968 11.758 83.8179 12.2427C84.139 12.7274 84.2995 13.3737 84.2995 14.1816H80.0289C80.3019 12.4205 81.0886 11.5157 82.389 11.5157Z" fill="white"/>
<path d="M122.012 12.5502C121.964 11.2738 121.643 10.3043 121.065 9.67423C120.439 8.97948 119.459 8.62402 118.143 8.62402C117.356 8.62402 116.602 8.81791 115.911 9.20567C115.317 9.52881 114.836 9.91658 114.434 10.369V9.90042C114.434 9.35109 114.001 8.91485 113.455 8.91485H111.512C110.966 8.91485 110.533 9.35109 110.533 9.90042V21.7112C110.533 22.2605 110.966 22.6967 111.512 22.6967H113.455C114.001 22.6967 114.434 22.2605 114.434 21.7112V13.3903C114.643 12.9864 114.932 12.6309 115.285 12.324C115.638 12.017 116.056 11.8554 116.537 11.8554C117.099 11.8554 117.501 11.9847 117.742 12.2593C117.982 12.534 118.111 12.9379 118.111 13.4873V21.7112C118.111 22.2605 118.544 22.6967 119.09 22.6967H121.033C121.579 22.6967 122.012 22.2605 122.012 21.7112V12.6148C122.012 12.5986 122.012 12.5825 122.012 12.5502Z" fill="white"/>
<path d="M107.194 22.6964H105.813C105.122 22.6964 104.561 22.1309 104.561 21.4361V10.0132C104.561 9.31842 105.122 8.75293 105.813 8.75293H107.194C107.884 8.75293 108.446 9.31842 108.446 10.0132V21.4361C108.446 22.1309 107.884 22.6964 107.194 22.6964Z" fill="white"/>
<path d="M107.194 7.44413H105.813C105.122 7.44413 104.561 6.87863 104.561 6.18389V4.98827C104.561 4.29352 105.122 3.72803 105.813 3.72803H107.194C107.884 3.72803 108.446 4.29352 108.446 4.98827V6.18389C108.446 6.87863 107.884 7.44413 107.194 7.44413Z" fill="white"/>
<path d="M101.799 11.5969C101.366 10.5144 100.788 9.67421 100.033 9.10872C99.2786 8.54322 98.4277 8.26855 97.4644 8.26855C96.6616 8.26855 95.9552 8.46244 95.313 8.83405C94.7993 9.14103 94.3979 9.51264 94.0929 9.94888V9.81962C94.0929 9.12487 93.531 8.55938 92.8406 8.55938H91.4599C90.7696 8.55938 90.2076 9.12487 90.2076 9.81962V26.7198C90.2076 27.4145 90.7696 27.98 91.4599 27.98H92.8406C93.531 27.98 94.0929 27.4145 94.0929 26.7198V21.8727L94.1089 21.8889C94.8796 22.4382 95.7786 22.7129 96.8222 22.7129C98.6043 22.7129 99.985 22.0666 100.964 20.774C101.944 19.4815 102.441 17.7204 102.441 15.5069C102.441 13.9881 102.233 12.6794 101.799 11.5969ZM95.9713 19.5784C95.3291 19.5784 94.703 19.4169 94.1089 19.0614V13.0833C94.719 12.0331 95.4415 11.4999 96.2924 11.4999C97.7373 11.4999 98.4437 12.8248 98.4437 15.4907C98.4437 18.2212 97.6249 19.5784 95.9713 19.5784Z" fill="white"/>
</g>
<defs>
<clipPath id="clip0">
<rect width="122" height="28" fill="white"/>
</clipPath>
</defs>
</svg>
