<svg width="21" height="26" viewBox="0 0 21 26" fill="none" xmlns="http://www.w3.org/2000/svg">
<path d="M11.2666 22.4059L8.76203 24.9264C8.36066 25.3303 7.71847 25.3303 7.33315 24.9264L4.82861 22.4059C4.42725 22.002 4.42725 21.3557 4.82861 20.968L7.33315 18.4475C7.73452 18.0436 8.37671 18.0436 8.76203 18.4475L11.2666 20.968C11.6519 21.3557 11.6519 22.002 11.2666 22.4059Z" fill="#76B243"/>
<path d="M6.75503 17.8669L4.25049 20.3873C3.84912 20.7913 3.20693 20.7913 2.82162 20.3873L0.301026 17.8669C-0.100342 17.4629 -0.100342 16.8167 0.301026 16.4289L2.80557 13.9084C3.20693 13.5045 3.84912 13.5045 4.23444 13.9084L6.75503 16.4289C7.1564 16.8167 7.1564 17.4629 6.75503 17.8669Z" fill="#76B243"/>
<path d="M15.7617 17.8669L13.2571 20.3873C12.8558 20.7913 12.2136 20.7913 11.8283 20.3873L9.32373 17.8669C8.92236 17.4629 8.92236 16.8167 9.32373 16.4289L11.8283 13.9084C12.2296 13.5045 12.8718 13.5045 13.2571 13.9084L15.7617 16.4289C16.163 16.8167 16.163 17.4629 15.7617 17.8669Z" fill="#76B243"/>
<path d="M20.2732 13.3259L17.7686 15.8463C17.3672 16.2503 16.7251 16.2503 16.3397 15.8463L13.8352 13.3259C13.4338 12.9219 13.4338 12.2756 13.8352 11.8879L16.3397 9.3674C16.7411 8.96347 17.3833 8.96347 17.7686 9.3674L20.2732 11.8879C20.6745 12.2918 20.6745 12.9381 20.2732 13.3259Z" fill="#76B243"/>
<path d="M11.2665 13.3259L8.76197 15.8463C8.3606 16.2503 7.71841 16.2503 7.3331 15.8463L4.8125 13.3259C4.41113 12.9219 4.41113 12.2756 4.8125 11.8879L7.31704 9.3674C7.71841 8.96347 8.3606 8.96347 8.74591 9.3674L11.2505 11.8879C11.6518 12.2918 11.6518 12.9381 11.2665 13.3259Z" fill="#91C959"/>
<path d="M6.75503 8.80241L4.25049 11.3229C3.84912 11.7268 3.20693 11.7268 2.82162 11.3229L0.301026 8.80241C-0.100342 8.39849 -0.100342 7.75221 0.301026 7.36444L2.80557 4.84396C3.20693 4.44003 3.84912 4.44003 4.23444 4.84396L6.75503 7.34829C7.1564 7.75221 7.1564 8.39849 6.75503 8.80241Z" fill="#91C959"/>
<path d="M15.7617 8.80241L13.2571 11.3229C12.8558 11.7268 12.2136 11.7268 11.8283 11.3229L9.32373 8.80241C8.92236 8.39849 8.92236 7.75221 9.32373 7.36444L11.8283 4.84396C12.2296 4.44003 12.8718 4.44003 13.2571 4.84396L15.7617 7.36444C16.163 7.75221 16.163 8.39849 15.7617 8.80241Z" fill="#91C959"/>
<path d="M20.2732 4.2614L17.7686 6.78188C17.3672 7.1858 16.7251 7.1858 16.3397 6.78188L13.8352 4.2614C13.4338 3.85747 13.4338 3.21119 13.8352 2.82343L16.3397 0.302943C16.7411 -0.100981 17.3833 -0.100981 17.7686 0.302943L20.2732 2.82343C20.6745 3.21119 20.6745 3.85747 20.2732 4.2614Z" fill="#91C959"/>
</svg>
