<svg width="20" height="20" viewBox="0 0 20 20" fill="none" xmlns="http://www.w3.org/2000/svg">
<circle cx="10.0001" cy="10" r="9.5" fill="white" stroke="#515151"/>
<path d="M12.6882 9.23616H10.9602V7.50916C10.9602 7.09816 10.6272 6.76416 10.2162 6.76416C9.80524 6.76416 9.47124 7.09816 9.47124 7.50916V9.23616H7.74424C7.33324 9.23616 7.00024 9.57016 7.00024 9.98116C7.00024 10.3922 7.33324 10.7262 7.74424 10.7262H9.47124V12.4522C9.47124 12.8632 9.80524 13.1972 10.2162 13.1972C10.6272 13.1972 10.9602 12.8632 10.9602 12.4522V10.7262H12.6882C13.0992 10.7262 13.4332 10.3922 13.4332 9.98116C13.4332 9.57016 13.0992 9.23616 12.6882 9.23616Z" fill="#91C959"/>
</svg>
