<svg width="13" height="11" viewBox="0 0 13 11" fill="none" xmlns="http://www.w3.org/2000/svg">
<path d="M9.74121 4.90243C10.4968 4.79627 11.0786 4.14843 11.0802 3.36356C11.0802 2.59006 10.5163 1.94873 9.77696 1.82739" stroke="#676767" stroke-linecap="round" stroke-linejoin="round"/>
<path d="M10.7383 6.71899C11.4701 6.82841 11.9809 7.08462 11.9809 7.61274C11.9809 7.9762 11.7404 8.21237 11.3514 8.36079" stroke="#676767" stroke-linecap="round" stroke-linejoin="round"/>
<path fill-rule="evenodd" clip-rule="evenodd" d="M6.49049 6.94287C4.74957 6.94287 3.2627 7.20666 3.2627 8.2602C3.2627 9.31321 4.74036 9.58458 6.49049 9.58458C8.2314 9.58458 9.71774 9.3235 9.71774 8.26941C9.71774 7.21533 8.24061 6.94287 6.49049 6.94287Z" stroke="#676767" stroke-linecap="round" stroke-linejoin="round"/>
<path fill-rule="evenodd" clip-rule="evenodd" d="M6.49051 5.43925C7.63289 5.43925 8.55914 4.51354 8.55914 3.37063C8.55914 2.22825 7.63289 1.302 6.49051 1.302C5.34814 1.302 4.42189 2.22825 4.42189 3.37063C4.41756 4.50921 5.33677 5.43546 6.47535 5.43925H6.49051Z" stroke="#676767" stroke-linecap="round" stroke-linejoin="round"/>
<path d="M3.23939 4.90243C2.48322 4.79627 1.90202 4.14843 1.90039 3.36356C1.90039 2.59006 2.46427 1.94873 3.20364 1.82739" stroke="#676767" stroke-linecap="round" stroke-linejoin="round"/>
<path d="M2.24258 6.71899C1.51079 6.82841 1 7.08462 1 7.61274C1 7.9762 1.2405 8.21237 1.62942 8.36079" stroke="#676767" stroke-linecap="round" stroke-linejoin="round"/>
</svg>
