<svg width="13" height="13" viewBox="0 0 13 13" fill="none" xmlns="http://www.w3.org/2000/svg">
<path d="M7.06904 9.63539V8.24451" stroke="#676767" stroke-linecap="round" stroke-linejoin="round"/>
<path fill-rule="evenodd" clip-rule="evenodd" d="M10.3113 2.55615C11.3305 2.55615 12.1506 3.38235 12.1506 4.40153V6.47607C10.6671 7.34448 8.70715 7.86914 6.57231 7.86914C4.43746 7.86914 2.48354 7.34448 1 6.47607V4.3955C1 3.37632 1.8262 2.55615 2.84537 2.55615H10.3113Z" stroke="#676767" stroke-linecap="round" stroke-linejoin="round"/>
<path d="M8.68629 2.55349V2.33277C8.68629 1.59703 8.08926 1 7.35352 1H5.79761C5.06188 1 4.46484 1.59703 4.46484 2.33277V2.55349" stroke="#676767" stroke-linecap="round" stroke-linejoin="round"/>
<path d="M1.01465 8.67896L1.12863 10.192C1.20582 11.2118 2.05554 12 3.07773 12H10.0727C11.0949 12 11.9446 11.2118 12.0218 10.192L12.1357 8.67896" stroke="#676767" stroke-linecap="round" stroke-linejoin="round"/>
</svg>
