<svg width="24" height="24" viewBox="0 0 24 24" fill="none" xmlns="http://www.w3.org/2000/svg">
<circle cx="12" cy="12" r="12" fill="#91C959"/>
<path d="M15.226 11.0836H13.1524V9.01119C13.1524 8.51799 12.7528 8.11719 12.2596 8.11719C11.7664 8.11719 11.3656 8.51799 11.3656 9.01119V11.0836H9.29319C8.79999 11.0836 8.40039 11.4844 8.40039 11.9776C8.40039 12.4708 8.79999 12.8716 9.29319 12.8716H11.3656V14.9428C11.3656 15.436 11.7664 15.8368 12.2596 15.8368C12.7528 15.8368 13.1524 15.436 13.1524 14.9428V12.8716H15.226C15.7192 12.8716 16.12 12.4708 16.12 11.9776C16.12 11.4844 15.7192 11.0836 15.226 11.0836Z" fill="white"/>
</svg>
