<svg width="12" height="12" viewBox="0 0 12 12" fill="none" xmlns="http://www.w3.org/2000/svg">
<path d="M5.64093 1.01953H3.65598C2.02353 1.01953 1 2.12686 1 3.69451V7.92341C1 9.49106 2.01875 10.5984 3.65598 10.5984H8.34044C9.97819 10.5984 10.9969 9.49106 10.9969 7.92341V5.87458" stroke="white" stroke-linecap="round" stroke-linejoin="round"/>
<path fill-rule="evenodd" clip-rule="evenodd" d="M4.22637 5.15589L8.19362 1.35478C8.68786 0.88174 9.48896 0.88174 9.98321 1.35478L10.6293 1.9738C11.1235 2.44735 11.1235 3.2154 10.6293 3.68844L6.64292 7.50786C6.42685 7.71488 6.13381 7.83136 5.82802 7.83136H3.83936L3.88926 5.90868C3.89669 5.62587 4.0172 5.35629 4.22637 5.15589Z" stroke="white" stroke-linecap="round" stroke-linejoin="round"/>
<path d="M7.59082 1.94141L10.0148 4.26389" stroke="white" stroke-linecap="round" stroke-linejoin="round"/>
</svg>
