<svg width="24" height="24" viewBox="0 0 24 24" fill="none" xmlns="http://www.w3.org/2000/svg">
<rect width="24" height="24" rx="5" fill="#91C959"/>
<path d="M16.7367 10.9644C17.8377 10.8097 18.6853 9.86579 18.6877 8.72218C18.6877 7.59514 17.8661 6.66068 16.7888 6.48389" stroke="white" stroke-width="1.5" stroke-linecap="round" stroke-linejoin="round"/>
<path d="M18.1895 13.6108C19.2557 13.7703 20 14.1436 20 14.9131C20 15.4427 19.6496 15.7868 19.0829 16.003" stroke="white" stroke-width="1.5" stroke-linecap="round" stroke-linejoin="round"/>
<path fill-rule="evenodd" clip-rule="evenodd" d="M12.0003 13.9375C9.46371 13.9375 7.29724 14.3219 7.29724 15.8569C7.29724 17.3912 9.4503 17.7866 12.0003 17.7866C14.537 17.7866 16.7027 17.4062 16.7027 15.8704C16.7027 14.3345 14.5504 13.9375 12.0003 13.9375Z" stroke="white" stroke-width="1.5" stroke-linecap="round" stroke-linejoin="round"/>
<path fill-rule="evenodd" clip-rule="evenodd" d="M12.0005 11.7465C13.665 11.7465 15.0146 10.3977 15.0146 8.73238C15.0146 7.06787 13.665 5.71826 12.0005 5.71826C10.336 5.71826 8.98635 7.06787 8.98635 8.73238C8.98004 10.3914 10.3194 11.741 11.9784 11.7465H12.0005Z" stroke="white" stroke-width="1.5" stroke-linecap="round" stroke-linejoin="round"/>
<path d="M7.26351 10.9644C6.16173 10.8097 5.31487 9.86579 5.3125 8.72218C5.3125 7.59514 6.1341 6.66068 7.21142 6.48389" stroke="white" stroke-width="1.5" stroke-linecap="round" stroke-linejoin="round"/>
<path d="M5.81052 13.6108C4.74426 13.7703 4 14.1436 4 14.9131C4 15.4427 4.35042 15.7868 4.9171 16.003" stroke="white" stroke-width="1.5" stroke-linecap="round" stroke-linejoin="round"/>
</svg>
