<svg width="13" height="13" viewBox="0 0 13 13" fill="none" xmlns="http://www.w3.org/2000/svg">
<path d="M4.85418 11.3243V9.63757C4.85417 9.20855 5.22233 8.85996 5.67848 8.85708H7.34937C7.80769 8.85708 8.17924 9.20651 8.17924 9.63757V9.63757V11.3295C8.17913 11.6938 8.48825 11.9915 8.87544 12H9.98937C11.0998 12 12 11.1534 12 10.109V10.109V5.31081C11.9941 4.89995 11.789 4.51414 11.443 4.26317L7.63342 1.37692C6.96601 0.874361 6.01728 0.874361 5.34987 1.37692L1.55696 4.26841C1.20973 4.51836 1.00428 4.90482 1 5.31605V10.109C1 11.1534 1.90019 12 3.01063 12H4.12456C4.52136 12 4.84304 11.6975 4.84304 11.3243V11.3243" stroke="#676767" stroke-linecap="round" stroke-linejoin="round"/>
</svg>
