<svg width="13" height="14" viewBox="0 0 13 14" fill="none" xmlns="http://www.w3.org/2000/svg">
<path fill-rule="evenodd" clip-rule="evenodd" d="M11.9425 4.3369L11.554 3.66261C11.2252 3.09206 10.4967 2.89524 9.9254 3.22261V3.22261C9.65344 3.38282 9.32892 3.42828 9.02341 3.34895C8.7179 3.26962 8.45649 3.07204 8.29682 2.79976C8.19411 2.62669 8.13891 2.42957 8.13682 2.22833V2.22833C8.14609 1.90569 8.02437 1.59303 7.79938 1.36159C7.5744 1.13014 7.26531 0.999623 6.94254 0.999756H6.15968C5.84346 0.999752 5.54027 1.12576 5.31721 1.3499C5.09414 1.57404 4.96959 1.87782 4.97111 2.19404V2.19404C4.96174 2.84692 4.42977 3.37125 3.77682 3.37118C3.57558 3.36909 3.37846 3.3139 3.2054 3.21118V3.21118C2.63407 2.88381 1.90556 3.08064 1.57682 3.65118L1.15968 4.3369C0.831347 4.90673 1.02549 5.63478 1.59397 5.96547V5.96547C1.96348 6.17881 2.19112 6.57308 2.19112 6.99976C2.19112 7.42644 1.96348 7.8207 1.59397 8.03404V8.03404C1.02622 8.3625 0.831857 9.08878 1.15968 9.6569V9.6569L1.55397 10.3369C1.70799 10.6148 1.96642 10.8199 2.27206 10.9068C2.57771 10.9936 2.90537 10.9551 3.18254 10.7998V10.7998C3.45501 10.6408 3.77971 10.5972 4.08446 10.6788C4.3892 10.7603 4.64874 10.9602 4.8054 11.234C4.90811 11.4071 4.96331 11.6042 4.9654 11.8055V11.8055C4.9654 12.4651 5.5001 12.9998 6.15968 12.9998H6.94254C7.5999 12.9998 8.13368 12.4685 8.13682 11.8112V11.8112C8.13529 11.494 8.26063 11.1893 8.48493 10.965C8.70924 10.7407 9.0139 10.6154 9.33111 10.6169C9.53187 10.6223 9.72818 10.6772 9.90254 10.7769V10.7769C10.4724 11.1052 11.2004 10.9111 11.5311 10.3426V10.3426L11.9425 9.6569C12.1018 9.38355 12.1455 9.05799 12.064 8.75232C11.9825 8.44665 11.7825 8.18608 11.5083 8.02833V8.02833C11.234 7.87057 11.034 7.61001 10.9525 7.30433C10.871 6.99866 10.9147 6.6731 11.074 6.39976C11.1775 6.21895 11.3274 6.06903 11.5083 5.96547V5.96547C12.0733 5.63496 12.267 4.91117 11.9425 4.34261V4.34261V4.3369Z" stroke="#676767" stroke-linecap="round" stroke-linejoin="round"/>
<circle cx="6.55392" cy="6.99972" r="1.64571" stroke="#676767" stroke-linecap="round" stroke-linejoin="round"/>
</svg>
