<svg width="12" height="12" viewBox="0 0 12 12" fill="none" xmlns="http://www.w3.org/2000/svg">
<path d="M5.64093 0.623535H3.65598C2.02353 0.623535 1 1.77925 1 3.41542V7.82913C1 9.46529 2.01875 10.621 3.65598 10.621H8.34043C9.97819 10.621 10.9969 9.46529 10.9969 7.82913V5.69075" stroke="#91C959" stroke-linecap="round" stroke-linejoin="round"/>
<path fill-rule="evenodd" clip-rule="evenodd" d="M4.22636 4.94056L8.19361 0.973314C8.68785 0.479598 9.48895 0.479598 9.98319 0.973314L10.6293 1.61939C11.1235 2.11364 11.1235 2.91526 10.6293 3.40898L6.64292 7.39533C6.42685 7.6114 6.13381 7.73297 5.82802 7.73297H3.83936L3.88926 5.72625C3.89669 5.43109 4.0172 5.14972 4.22636 4.94056Z" stroke="#91C959" stroke-linecap="round" stroke-linejoin="round"/>
<path d="M7.59082 1.58643L10.0148 4.01041" stroke="#91C959" stroke-linecap="round" stroke-linejoin="round"/>
</svg>
