<!-- <svg fill="none" stroke="currentColor" stroke-linecap="round" stroke-linejoin="round" stroke-width="2" viewBox="0 0 24 24" class="h-6 text-DPGREY-200 w-4"><path d="M21 21l-6-6m2-5a7 7 0 11-14 0 7 7 0 0114 0z"></path></svg> -->
<svg width="21" height="20" viewBox="0 0 21 20" fill="none" xmlns="http://www.w3.org/2000/svg">
<path fill-rule="evenodd" clip-rule="evenodd" d="M10.25 0.75C15.358 0.75 19.5 4.891 19.5 10C19.5 15.108 15.358 19.25 10.25 19.25C5.141 19.25 1 15.108 1 10C1 4.891 5.141 0.75 10.25 0.75Z" stroke="#515151" stroke-width="1.5" stroke-linecap="round" stroke-linejoin="round"/>
<path d="M9.13435 11.108C9.13435 10.828 9.17168 10.59 9.24635 10.394C9.32102 10.198 9.44702 10.016 9.62435 9.848C9.88569 9.596 10.1237 9.37667 10.3384 9.19C10.5624 9.00333 10.7537 8.83067 10.9124 8.672C11.071 8.504 11.1924 8.35 11.2764 8.21C11.3697 8.06067 11.4164 7.90667 11.4164 7.748C11.4164 7.44 11.3184 7.202 11.1224 7.034C10.9357 6.85667 10.6977 6.768 10.4084 6.768C9.96969 6.768 9.63369 6.88933 9.40035 7.132C9.17635 7.37467 9.05035 7.66867 9.02235 8.014L6.86635 7.874C6.96902 6.88467 7.33302 6.13333 7.95835 5.62C8.58369 5.09733 9.38635 4.836 10.3664 4.836C10.7957 4.836 11.197 4.89667 11.5704 5.018C11.953 5.13 12.289 5.30267 12.5784 5.536C12.8677 5.76933 13.0964 6.05867 13.2644 6.404C13.4324 6.74933 13.5164 7.146 13.5164 7.594C13.5164 7.86467 13.4884 8.112 13.4324 8.336C13.3764 8.55067 13.2784 8.76533 13.1384 8.98C13.0077 9.19467 12.8304 9.414 12.6064 9.638C12.3917 9.85267 12.1164 10.0907 11.7804 10.352C11.5657 10.52 11.421 10.6833 11.3464 10.842C11.2717 11.0007 11.2344 11.1593 11.2344 11.318V11.724H9.13435V11.108ZM8.89635 13.796C8.89635 13.6187 8.92902 13.4507 8.99435 13.292C9.05969 13.1333 9.14835 12.998 9.26035 12.886C9.38168 12.7647 9.52169 12.6713 9.68035 12.606C9.83902 12.5407 10.007 12.508 10.1844 12.508C10.3617 12.508 10.5297 12.5407 10.6884 12.606C10.847 12.6713 10.9824 12.7647 11.0944 12.886C11.2157 12.998 11.309 13.1333 11.3744 13.292C11.4397 13.4507 11.4724 13.6187 11.4724 13.796C11.4724 13.9733 11.4397 14.1413 11.3744 14.3C11.309 14.4587 11.2157 14.5987 11.0944 14.72C10.9824 14.832 10.847 14.9207 10.6884 14.986C10.5297 15.0513 10.3617 15.084 10.1844 15.084C10.007 15.084 9.83902 15.0513 9.68035 14.986C9.52169 14.9207 9.38168 14.832 9.26035 14.72C9.14835 14.5987 9.05969 14.4587 8.99435 14.3C8.92902 14.1413 8.89635 13.9733 8.89635 13.796Z" fill="#515151"/>
</svg>
