<svg width="17" height="17" viewBox="0 0 17 17" fill="none" xmlns="http://www.w3.org/2000/svg">
<circle cx="8.5" cy="8.5" r="8" fill="white" stroke="#D1D1D1"/>
<path d="M10.785 7.84949H9.3162V6.38154C9.3162 6.03219 9.03315 5.74829 8.6838 5.74829C8.33445 5.74829 8.05055 6.03219 8.05055 6.38154V7.84949H6.5826C6.23325 7.84949 5.9502 8.13339 5.9502 8.48274C5.9502 8.83209 6.23325 9.11599 6.5826 9.11599H8.05055V10.5831C8.05055 10.9324 8.33445 11.2163 8.6838 11.2163C9.03315 11.2163 9.3162 10.9324 9.3162 10.5831V9.11599H10.785C11.1343 9.11599 11.4182 8.83209 11.4182 8.48274C11.4182 8.13339 11.1343 7.84949 10.785 7.84949Z" fill="#D1D1D1"/>
</svg>
