<svg width="15" height="15" viewBox="0 0 15 15" fill="none" xmlns="http://www.w3.org/2000/svg">
<mask id="mask0" mask-type="alpha" maskUnits="userSpaceOnUse" x="0" y="9" width="12" height="6">
<path fill-rule="evenodd" clip-rule="evenodd" d="M0 9.3418H11.8155V14.846H0V9.3418Z" fill="white"/>
</mask>
<g mask="url(#mask0)">
<path fill-rule="evenodd" clip-rule="evenodd" d="M5.90775 10.467C2.7345 10.467 1.125 11.0123 1.125 12.0863C1.125 13.1708 2.7345 13.7213 5.90775 13.7213C9.081 13.7213 10.6905 13.176 10.6905 12.1028C10.6905 11.0168 9.081 10.467 5.90775 10.467M5.90775 14.846C4.44675 14.846 0 14.846 0 12.086C0 9.62605 3.37125 9.3418 5.90775 9.3418C7.36875 9.3418 11.8155 9.3418 11.8155 12.1025C11.8155 14.5618 8.44425 14.846 5.90775 14.846" fill="#515151"/>
</g>
<path fill-rule="evenodd" clip-rule="evenodd" d="M5.90773 1.125C4.32973 1.125 3.04498 2.40975 3.04498 3.9885C3.04198 4.75275 3.33598 5.469 3.87223 6.00975C4.40923 6.54975 5.12473 6.849 5.88673 6.852L5.90773 7.4145V6.852C7.48648 6.852 8.77123 5.56725 8.77123 3.9885C8.77123 2.40975 7.48648 1.125 5.90773 1.125M5.9077 7.977H5.88445C4.8202 7.97325 3.8227 7.5555 3.07495 6.8025C2.32645 6.04875 1.9162 5.04825 1.91995 3.98625C1.91995 1.7895 3.7087 0 5.9077 0C8.10745 0 9.8962 1.7895 9.8962 3.9885C9.8962 6.1875 8.10745 7.977 5.9077 7.977" fill="#515151"/>
<path fill-rule="evenodd" clip-rule="evenodd" d="M12.9031 8.57221C12.5926 8.57221 12.3406 8.32021 12.3406 8.00971V5.00146C12.3406 4.69096 12.5926 4.43896 12.9031 4.43896C13.2136 4.43896 13.4656 4.69096 13.4656 5.00146V8.00971C13.4656 8.32021 13.2136 8.57221 12.9031 8.57221" fill="#515151"/>
<path fill-rule="evenodd" clip-rule="evenodd" d="M14.4375 7.06787H11.37C11.0595 7.06787 10.8075 6.81587 10.8075 6.50537C10.8075 6.19487 11.0595 5.94287 11.37 5.94287H14.4375C14.748 5.94287 15 6.19487 15 6.50537C15 6.81587 14.748 7.06787 14.4375 7.06787" fill="#515151"/>
</svg>
