<svg width="13" height="14" viewBox="0 0 13 14" fill="none" xmlns="http://www.w3.org/2000/svg">
<path d="M11.102 5.35889C11.102 5.35889 10.7498 9.72725 10.5455 11.5673C10.4482 12.4462 9.90528 12.9612 9.01604 12.9774C7.32383 13.0079 5.62967 13.0099 3.9381 12.9742C3.08259 12.9567 2.54878 12.4352 2.45344 11.5719C2.24783 9.71558 1.89758 5.35889 1.89758 5.35889" stroke="#515151" stroke-linecap="round" stroke-linejoin="round"/>
<path d="M11.9991 3.26229H1" stroke="#515151" stroke-linecap="round" stroke-linejoin="round"/>
<path d="M9.87957 3.26299C9.37041 3.26299 8.93195 2.90301 8.83207 2.40423L8.67446 1.61553C8.57717 1.25166 8.24767 1 7.87213 1H5.12658C4.75104 1 4.42154 1.25166 4.32425 1.61553L4.16664 2.40423C4.06676 2.90301 3.6283 3.26299 3.11914 3.26299" stroke="#515151" stroke-linecap="round" stroke-linejoin="round"/>
</svg>
