<svg width="14" height="15" viewBox="0 0 14 15" fill="none" xmlns="http://www.w3.org/2000/svg">
<mask id="mask0" mask-type="alpha" maskUnits="userSpaceOnUse" x="0" y="0" width="14" height="15">
<path fill-rule="evenodd" clip-rule="evenodd" d="M0 0H13.9604V15H0V0Z" fill="white"/>
</mask>
<g mask="url(#mask0)">
<path fill-rule="evenodd" clip-rule="evenodd" d="M3.76601 11.1771C3.93178 11.1771 4.09755 11.1981 4.25971 11.2415C4.74907 11.3732 5.174 11.7004 5.42592 12.1399C5.58952 12.4157 5.68001 12.7378 5.6829 13.0665C5.6829 13.537 6.06078 13.9141 6.52553 13.9141H7.43258C7.89515 13.9141 8.27303 13.5392 8.2752 13.0766C8.2723 12.5655 8.4721 12.0798 8.83767 11.7142C9.19818 11.3537 9.70201 11.1373 10.2059 11.1517C10.536 11.1597 10.8537 11.2487 11.1339 11.408C11.5371 11.6389 12.0518 11.5014 12.2849 11.1032L12.7656 10.3019C12.8727 10.1173 12.9038 9.88562 12.8466 9.67207C12.7902 9.45852 12.6483 9.2732 12.4572 9.16389C12.0098 8.90618 11.6906 8.49066 11.5581 7.99262C11.4271 7.50398 11.4987 6.97046 11.7543 6.53105C11.9208 6.24149 12.1647 5.99754 12.4572 5.82959C12.8495 5.60012 12.9871 5.08687 12.7591 4.68727C12.7496 4.67135 12.741 4.6547 12.7337 4.63732L12.3095 3.90184C12.0786 3.50007 11.5646 3.36181 11.1614 3.59128C10.7256 3.84899 10.2073 3.92283 9.70925 3.79181C9.21193 3.66295 8.79496 3.34805 8.53508 2.90358C8.36858 2.6256 8.2781 2.30201 8.2752 1.97264C8.28172 1.72506 8.19485 1.50282 8.03704 1.33994C7.87995 1.17779 7.65916 1.08585 7.43258 1.08585H6.52553C6.30112 1.08585 6.09118 1.17345 5.93265 1.33126C5.77484 1.48979 5.68869 1.70045 5.69014 1.92486C5.67494 2.98321 4.80988 3.83524 3.76239 3.83524C3.4265 3.83162 3.10291 3.74113 2.82204 3.57319C2.42751 3.34878 1.91209 3.48704 1.68117 3.88881L1.19108 4.69451C0.966673 5.08397 1.10421 5.59867 1.50381 5.83104C2.09669 6.17417 2.4666 6.8141 2.4666 7.50036C2.4666 8.18662 2.09669 8.82583 1.50236 9.16968C1.10494 9.39988 0.967397 9.91168 1.1976 10.3098L1.65438 11.0974C1.76731 11.3009 1.95191 11.4478 2.16546 11.5079C2.37828 11.5673 2.61283 11.5419 2.80828 11.4333C3.09567 11.2647 3.43012 11.1771 3.76601 11.1771ZM7.43255 15H6.5255C5.46208 15 4.59702 14.1357 4.59702 13.0722C4.59557 12.9412 4.55793 12.8051 4.48771 12.6871C4.37406 12.4888 4.19018 12.3469 3.97808 12.2904C3.76742 12.234 3.5365 12.2651 3.34684 12.3751C2.89223 12.6285 2.35726 12.69 1.8679 12.5525C1.37927 12.4142 0.957232 12.0783 0.709657 11.6331L0.257217 10.8535C-0.271956 9.93557 0.0429417 8.75923 0.959403 8.22933C1.21928 8.07948 1.38072 7.80006 1.38072 7.50036C1.38072 7.20067 1.21928 6.92051 0.959403 6.77067C0.0422179 6.23787 -0.271956 5.05864 0.256493 4.14073L0.7473 3.33502C1.26923 2.42725 2.4492 2.10728 3.36928 2.63573C3.49451 2.71029 3.63061 2.74794 3.76887 2.74938C4.21986 2.74938 4.59702 2.3773 4.60426 1.91979C4.60136 1.41523 4.80043 0.93094 5.16311 0.565368C5.52723 0.200521 6.0108 0 6.5255 0H7.43255C7.95086 0 8.4547 0.212828 8.81593 0.582742C9.17643 0.954828 9.3755 1.46518 9.3603 1.98277C9.36175 2.09932 9.40012 2.23397 9.46961 2.35196C9.58471 2.54742 9.76641 2.68496 9.98213 2.74142C10.1979 2.79499 10.4237 2.76603 10.6156 2.65238C11.5421 2.12321 12.7214 2.44028 13.2506 3.35963L13.7015 4.14073C13.7131 4.16172 13.7233 4.18199 13.732 4.20298C14.2112 5.10859 13.8912 6.24873 13.0008 6.76922C12.8712 6.84378 12.7663 6.94802 12.6939 7.07398C12.5817 7.26871 12.5505 7.50036 12.607 7.71319C12.6649 7.93036 12.8032 8.11061 12.9979 8.22209C13.4373 8.47474 13.7653 8.90039 13.8963 9.39192C14.0273 9.88273 13.9556 10.4155 13.7001 10.8549L13.2194 11.6556C12.6903 12.5648 11.511 12.8797 10.5938 12.3498C10.4715 12.2796 10.3303 12.2412 10.1899 12.2376H10.1856C9.97634 12.2376 9.76134 12.3266 9.60498 12.4823C9.44645 12.6408 9.35958 12.8522 9.36102 13.0766C9.35596 14.14 8.49089 15 7.43255 15Z" fill="#515151"/>
</g>
<path fill-rule="evenodd" clip-rule="evenodd" d="M6.98212 6.13458C6.22926 6.13458 5.61683 6.74772 5.61683 7.50058C5.61683 8.25344 6.22926 8.86514 6.98212 8.86514C7.73497 8.86514 8.3474 8.25344 8.3474 7.50058C8.3474 6.74772 7.73497 6.13458 6.98212 6.13458ZM6.98214 9.95061C5.63061 9.95061 4.53101 8.85173 4.53101 7.5002C4.53101 6.14867 5.63061 5.04834 6.98214 5.04834C8.33367 5.04834 9.43328 6.14867 9.43328 7.5002C9.43328 8.85173 8.33367 9.95061 6.98214 9.95061Z" fill="#515151"/>
</svg>
