<svg width="11" height="11" viewBox="0 0 11 11" fill="none" xmlns="http://www.w3.org/2000/svg">
<g id="Iconly/Light-Outline/Lock">
<g id="Lock">
<path id="Fill 1" fill-rule="evenodd" clip-rule="evenodd" d="M7.75565 4.67534C7.5659 4.67534 7.4119 4.52134 7.4119 4.33159V3.34755C7.4119 2.38688 6.63044 1.60542 5.66978 1.60542H5.66244C5.19815 1.60542 4.7632 1.78417 4.43457 2.11005C4.10365 2.4373 3.92078 2.87409 3.91895 3.33976V4.33159C3.91895 4.52134 3.76495 4.67534 3.5752 4.67534C3.38545 4.67534 3.23145 4.52134 3.23145 4.33159V3.34755C3.2342 2.68755 3.48949 2.07842 3.95011 1.62192C4.4112 1.16497 5.01986 0.900507 5.67115 0.917924C7.00949 0.917924 8.0994 2.00784 8.0994 3.34755V4.33159C8.0994 4.52134 7.9454 4.67534 7.75565 4.67534Z" fill="#EA1414"/>
<path id="Fill 3" fill-rule="evenodd" clip-rule="evenodd" d="M3.91476 4.64246C3.14567 4.64246 2.52051 5.26762 2.52051 6.03671V8.0025C2.52051 8.77158 3.14567 9.39675 3.91476 9.39675H7.41688C8.18551 9.39675 8.81113 8.77158 8.81113 8.0025V6.03671C8.81113 5.26762 8.18551 4.64246 7.41688 4.64246H3.91476ZM7.41688 10.0842H3.91476C2.76663 10.0842 1.83301 9.15062 1.83301 8.0025V6.03671C1.83301 4.88858 2.76663 3.95496 3.91476 3.95496H7.41688C8.56501 3.95496 9.49863 4.88858 9.49863 6.03671V8.0025C9.49863 9.15062 8.56501 10.0842 7.41688 10.0842Z" fill="#EA1414"/>
<path id="Fill 5" fill-rule="evenodd" clip-rule="evenodd" d="M5.66602 7.87233C5.47627 7.87233 5.32227 7.71833 5.32227 7.52858V6.51062C5.32227 6.32087 5.47627 6.16687 5.66602 6.16687C5.85576 6.16687 6.00976 6.32087 6.00976 6.51062V7.52858C6.00976 7.71833 5.85576 7.87233 5.66602 7.87233Z" fill="#EA1414"/>
</g>
</g>
</svg>
