<svg width="23" height="23" viewBox="0 0 23 23" fill="none" xmlns="http://www.w3.org/2000/svg">
<rect x="0.5" y="0.5" width="22" height="22" rx="4.5" fill="#FAFAFA" stroke="#868686"/>
<path d="M15.2659 10.4746C15.2659 10.4746 14.9777 14.049 14.8105 15.5547C14.7309 16.2738 14.2867 16.6952 13.5591 16.7085C12.1744 16.7334 10.7882 16.735 9.40403 16.7058C8.70401 16.6915 8.26722 16.2648 8.1892 15.5584C8.02097 14.0395 7.73438 10.4746 7.73438 10.4746" stroke="#868686" stroke-linecap="round" stroke-linejoin="round"/>
<path d="M16 8.76146H7" stroke="#868686" stroke-linecap="round" stroke-linejoin="round"/>
<path d="M14.2659 8.76087C13.8492 8.76087 13.4905 8.46632 13.4087 8.05819L13.2798 7.41284C13.2002 7.1151 12.9306 6.90918 12.6233 6.90918H10.3767C10.0694 6.90918 9.79982 7.1151 9.72021 7.41284L9.59125 8.05819C9.50952 8.46632 9.15075 8.76087 8.73413 8.76087" stroke="#868686" stroke-linecap="round" stroke-linejoin="round"/>
</svg>
