<svg width="13" height="15" viewBox="0 0 13 15" fill="none" xmlns="http://www.w3.org/2000/svg">
<path fill-rule="evenodd" clip-rule="evenodd" d="M3.52686 6.22391C3.23361 6.22391 2.99561 5.98591 2.99561 5.69266V4.17187C3.00481 2.09078 4.68781 0.416992 6.75119 0.416992H6.76536C8.36336 0.416992 9.78994 1.43203 10.3134 2.94362C10.4097 3.22058 10.2624 3.52303 9.98473 3.61937C9.70777 3.71641 9.40531 3.56837 9.30898 3.2907C8.93427 2.20766 7.91073 1.47949 6.76323 1.47949H6.75331C5.27148 1.47949 4.06448 2.67941 4.05811 4.15983V5.69266C4.05811 5.98591 3.82011 6.22391 3.52686 6.22391Z" fill="#91C959"/>
<path fill-rule="evenodd" clip-rule="evenodd" d="M4.0505 6.17334C2.86192 6.17334 1.89575 7.14021 1.89575 8.3288V11.3661C1.89575 12.5547 2.86192 13.5216 4.0505 13.5216H9.46359C10.6515 13.5216 11.6183 12.5547 11.6183 11.3661V8.3288C11.6183 7.14021 10.6515 6.17334 9.46359 6.17334H4.0505ZM9.46359 14.5841H4.0505C2.27613 14.5841 0.833252 13.1405 0.833252 11.3661V8.3288C0.833252 6.55442 2.27613 5.11084 4.0505 5.11084H9.46359C11.2373 5.11084 12.6808 6.55442 12.6808 8.3288V11.3661C12.6808 13.1405 11.2373 14.5841 9.46359 14.5841Z" fill="#91C959"/>
<path fill-rule="evenodd" clip-rule="evenodd" d="M6.75732 11.1655C6.46407 11.1655 6.22607 10.9275 6.22607 10.6342V9.0603C6.22607 8.76705 6.46407 8.52905 6.75732 8.52905C7.05057 8.52905 7.28857 8.76705 7.28857 9.0603V10.6342C7.28857 10.9275 7.05057 11.1655 6.75732 11.1655Z" fill="#91C959"/>
</svg>
